#!OML:ASF F:\VICON\USERDATA\INSTALL\rory3\rory3.ASF
:FULLY-SPECIFIED
:DEGREES
334
root 0.131271 17.8914 30.0079 -2.97164 -0.33792 -0.239512
lowerback 11.3648 -1.27254 -2.35678
upperback -0.0149241 -1.87961 1.93842
thorax -6.25648 -0.818782 3.68409
lowerneck -16.581 -2.45031 -1.73575
upperneck 24.6024 -2.85642 -0.512343
head 10.6695 -1.53991 -0.291099
rclavicle -3.04638e-014 1.90833e-014
rhumerus -40.8 -36.3294 -64.0656
rradius 18.2709
rwrist 15.8235
rhand -14.3973 21.7448
rfingers 7.12502
rthumb 11.746 -7.90584
lclavicle -3.04638e-014 1.90833e-014
lhumerus -28.7114 2.61534 79.4582
lradius 30.5306
lwrist 8.15714
lhand -27.7731 22.3955
lfingers 7.12502
lthumb -1.16674 52.3721
rfemur -22.6147 4.20732 23.1481
rtibia 27.2741
rfoot -4.36855 -2.82805
rtoes 0.205381
lfemur 5.60378 0.174797 -20.9248
ltibia 44.5203
lfoot 7.18065 -16.0697
ltoes -14.1389
335
root 0.110501 17.9138 30.2032 -3.21313 -0.478781 -0.203052
lowerback 11.4788 -1.20957 -2.32681
upperback 0.0465838 -1.79852 1.86207
thorax -6.26512 -0.781611 3.57575
lowerneck -16.6339 -2.45046 -1.74464
upperneck 24.6162 -2.88239 -0.40412
head 10.6869 -1.53913 -0.255411
rclavicle -8.39865e-015 -1.98785e-015
rhumerus -40.5906 -35.7683 -64.5569
rradius 18.4145
rwrist 15.37
rhand -14.2019 21.7615
rfingers 7.12502
rthumb 11.9344 -7.87828
lclavicle -8.39865e-015 -1.98785e-015
lhumerus -29.0559 2.48029 79.5439
lradius 30.5671
lwrist 8.37321
lhand -27.5511 22.5474
lfingers 7.12502
lthumb -0.952333 52.525
rfemur -21.8726 3.86158 23.3474
rtibia 27.6857
rfoot -4.85328 -2.49294
rtoes 0.375992
lfemur 4.60049 0.543975 -20.7023
ltibia 46.6455
lfoot 10.3763 -16.8999
ltoes -10.2158
336
root 0.0822315 17.9375 30.3836 -3.39444 -0.753712 -0.848489
lowerback 11.668 -1.12139 -1.73775
upperback 0.160782 -1.59396 2.02758
thorax -6.27722 -0.697739 3.3873
lowerneck -16.7194 -2.4237 -1.79073
upperneck 24.4094 -2.85244 -0.31002
head 10.6295 -1.51742 -0.20901
rclavicle -1.33807e-014 -2.50469e-014
rhumerus -39.8493 -34.8635 -65.5482
rradius 18.5287
rwrist 14.66
rhand -14.6357 21.0902
rfingers 7.12502
rthumb 11.5161 -8.57346
lclavicle -1.33807e-014 -2.50469e-014
lhumerus -29.2196 2.46912 79.7141
lradius 30.6507
lwrist 8.64364
lhand -27.3837 22.8514
lfingers 7.12502
lthumb -0.79067 52.8297
rfemur -21.0293 3.90594 24.3014
rtibia 27.7596
rfoot -4.98522 -2.60542
rtoes 0.792651
lfemur 3.37338 0.975724 -19.6696
ltibia 49.0032
lfoot 13.0888 -17.8434
ltoes -7.34311
337
root 0.0555266 17.9585 30.5564 -3.47052 -0.926212 -1.55149
lowerback 11.724 -1.07125 -1.02735
upperback 0.326987 -1.42309 2.18133
thorax -6.15763 -0.636427 3.11675
lowerneck -17.0233 -2.38097 -1.77124
upperneck 24.3413 -2.78826 -0.311947
head 10.6623 -1.48507 -0.207402
rclavicle -2.28975e-014 2.22639e-014
rhumerus -39.2018 -34.9376 -65.9769
rradius 18.349
rwrist 14.8359
rhand -14.6091 21.6274
rfingers 7.12502
rthumb 11.5417 -8.03479
lclavicle -2.28975e-014 2.22639e-014
lhumerus -29.3154 2.47073 79.8683
lradius 30.9326
lwrist 8.74776
lhand -27.1033 23.6198
lfingers 7.12502
lthumb -0.519889 53.5989
rfemur -20.1758 4.15105 25.2585
rtibia 27.5439
rfoot -5.08406 -2.48023
rtoes 2.50074
lfemur 1.89641 1.2594 -18.6106
ltibia 51.5168
lfoot 15.7624 -18.5564
ltoes -4.65007
338
root 0.0309813 17.9712 30.726 -3.41544 -1.09129 -2.30884
lowerback 11.7813 -1.02633 -0.23459
upperback 0.287267 -1.24534 2.33563
thorax -6.25611 -0.568637 2.80396
lowerneck -17.077 -2.41628 -1.79916
upperneck 24.4371 -2.84517 -0.253169
head 10.7099 -1.50618 -0.191316
rclavicle -2.72211e-014 -9.14409e-015
rhumerus -38.919 -34.4577 -66.4468
rradius 18.4442
rwrist 14.4567
rhand -14.2236 22.8029
rfingers 7.12502
rthumb 11.9135 -6.83809
lclavicle -2.72211e-014 -9.14409e-015
lhumerus -29.716 2.31179 80.0434
lradius 31.1673
lwrist 8.89207
lhand -25.8506 24.2838
lfingers 7.12502
lthumb 0.690033 54.2625
rfemur -19.4737 4.52934 26.2384
rtibia 27.3009
rfoot -4.97961 -2.57738
rtoes 5.35458
lfemur 0.257388 1.42502 -17.5377
ltibia 54.0136
lfoot 18.7301 -18.872
ltoes -1.39835
